<?xml version="1.0" encoding="UTF-8"?>
<svg width="18px" height="18px" viewBox="0 0 18 18" version="1.1" xmlns="http://www.w3.org/2000/svg" xmlns:xlink="http://www.w3.org/1999/xlink">
    <!-- Generator: Sketch 48.2 (47327) - http://www.bohemiancoding.com/sketch -->
    <title>Shape</title>
    <desc>Created with Sketch.</desc>
    <defs></defs>
    <g id="Artboard" stroke="none" stroke-width="1" fill="none" fill-rule="evenodd" transform="translate(-505.000000, -437.000000)" opacity="0.277230525">
        <g id="Wrench_font_awesome" transform="translate(505.000000, 437.000000)" fill="#000000" fill-rule="nonzero">
            <g id="Group" transform="translate(9.000000, 9.000000) scale(-1, 1) rotate(-180.000000) translate(-9.000000, -9.000000) ">
                <path d="M3.98171846,3.27571516 C3.98171846,3.46561169 3.91224863,3.62994522 3.77330896,3.76871576 C3.63436929,3.90748631 3.46983547,3.97687158 3.2797075,3.97687158 C3.08957952,3.97687158 2.9250457,3.90748631 2.78610603,3.76871576 C2.64716636,3.62994522 2.57769653,3.46561169 2.57769653,3.27571516 C2.57769653,3.08581862 2.64716636,2.92148509 2.78610603,2.78271455 C2.9250457,2.643944 3.08957952,2.57455873 3.2797075,2.57455873 C3.46983547,2.57455873 3.63436929,2.643944 3.77330896,2.78271455 C3.91224863,2.92148509 3.98171846,3.08581862 3.98171846,3.27571516 Z M11.0457038,7.87705417 L3.56489945,0.405356056 C3.29433272,0.135118685 2.96526508,0 2.57769653,0 C2.19744059,0 1.86471664,0.135118685 1.57952468,0.405356056 L0.416819013,1.58855752 C0.138939671,1.85149117 0,2.18015825 0,2.57455873 C0,2.96165551 0.138939671,3.29397444 0.416819013,3.57151552 L7.88665448,11.0322581 C8.17184644,10.3164942 8.5904936,9.68289714 9.14259598,9.13146683 C9.69469835,8.58003652 10.3290676,8.16189897 11.0457038,7.87705417 Z M18,12.6427267 C18,12.3578819 17.9159049,11.9707851 17.7477148,11.4814364 C17.4040219,10.5027389 16.8025594,9.70846013 15.9433272,9.09860012 C15.0840951,8.48874011 14.1389397,8.1838101 13.1078611,8.1838101 C11.7550274,8.1838101 10.5978062,8.66402921 9.63619744,9.62446744 C8.67458867,10.5849057 8.19378428,11.7407182 8.19378428,13.0919051 C8.19378428,14.4430919 8.67458867,15.5989044 9.63619744,16.5593427 C10.5978062,17.5197809 11.7550274,18 13.1078611,18 C13.5319927,18 13.976234,17.9397444 14.440585,17.8192331 C14.904936,17.6987219 15.297989,17.5289105 15.6197441,17.3097991 C15.7367459,17.2294583 15.7952468,17.1272063 15.7952468,17.0030432 C15.7952468,16.8788801 15.7367459,16.7766281 15.6197441,16.6962873 L12.4058501,14.8447961 L12.4058501,12.3907486 L14.5228519,11.2185027 C14.559415,11.2404139 14.8482633,11.4175289 15.3893967,11.7498478 C15.9305302,12.0821668 16.4259598,12.3779671 16.8756856,12.6372489 C17.3254113,12.8965307 17.583181,13.0261716 17.6489945,13.0261716 C17.7586837,13.0261716 17.8446069,12.9896531 17.9067642,12.9166159 C17.9689214,12.8435788 18,12.7522824 18,12.6427267 Z" id="Shape"></path>
            </g>
        </g>
    </g>
</svg>